HIERARCHY
ROOT Hips
{
     OFFSET 1.88212 96.90440 -13.34250
     CHANNELS 6 Xposition Yposition Zposition Zrotation Xrotation Yrotation
     JOINT Spine
     {
          OFFSET 0.00000 11.89050 0.00000
          CHANNELS 3 Zrotation Xrotation Yrotation
          JOINT Spine1
          {
               OFFSET -0.00000 25.65740 0.12766
               CHANNELS 3 Zrotation Xrotation Yrotation
               JOINT HEad
               {
                    OFFSET 0.00000 8.73416 0.01134
                    CHANNELS 3 Zrotation Xrotation Yrotation
                    End Site
                    {
                         OFFSET -0.29000 12.77420 2.51395
                    }
               }
               JOINT LeftShoulder1
               {
                    OFFSET 8.99000 -0.36225 -0.22000
                    CHANNELS 3 Zrotation Xrotation Yrotation
                    JOINT LeftArm
                    {
                         OFFSET 10.28270 -0.00338 0.32212
                         CHANNELS 3 Zrotation Xrotation Yrotation
                         JOINT LeftForeArm
                         {
                              OFFSET 32.76690 0.09914 -1.42434
                              CHANNELS 3 Zrotation Xrotation Yrotation
                              JOINT LeftHand
                              {
                                   OFFSET 27.56430 0.08536 1.02216
                                   CHANNELS 3 Zrotation Xrotation Yrotation
                                   End Site
                                   {
                                        OFFSET 16.74430 -0.60000 1.50291
                                   }
                              }
                         }
                    }
               }
               JOINT RightShoulder
               {
                    OFFSET -8.99000 -0.36225 -0.22000
                    CHANNELS 3 Zrotation Xrotation Yrotation
                    JOINT RightArm
                    {
                         OFFSET -10.28270 -0.00338 0.32212
                         CHANNELS 3 Zrotation Xrotation Yrotation
                         JOINT RightForeArm
                         {
                              OFFSET -32.89710 0.09914 -1.42434
                              CHANNELS 3 Zrotation Xrotation Yrotation
                              JOINT RightHand
                              {
                                   OFFSET -27.49210 0.08536 1.02216
                                   CHANNELS 3 Zrotation Xrotation Yrotation
                                   End Site
                                   {
                                        OFFSET -16.63120 -0.60000 1.50291
                                   }
                              }
                         }
                    }
               }
          }
     }
     JOINT LeftUpLeg
     {
          OFFSET 8.94580 -8.66707 0.10165
          CHANNELS 3 Zrotation Xrotation Yrotation
          JOINT LeftLeg
          {
               OFFSET 0.00000 -44.42270 1.37270
               CHANNELS 3 Zrotation Xrotation Yrotation
               JOINT LeftFoot
               {
                    OFFSET -0.25355 -42.09240 -1.46059
                    CHANNELS 3 Zrotation Xrotation Yrotation
                    JOINT LeftToes
                    {
                         OFFSET -0.04000 -4.41509 8.49910
                         CHANNELS 3 Zrotation Xrotation Yrotation
                         End Site
                         {
                              OFFSET 0.08000 -0.04745 9.77979
                         }
                    }
               }
          }
     }
     JOINT RightUpLeg
     {
          OFFSET -8.94580 -8.66707 0.10165
          CHANNELS 3 Zrotation Xrotation Yrotation
          JOINT RightLeg
          {
               OFFSET 0.00000 -44.42270 1.37270
               CHANNELS 3 Zrotation Xrotation Yrotation
               JOINT RightFoot
               {
                    OFFSET 0.25355 -42.09240 -1.46059
                    CHANNELS 3 Zrotation Xrotation Yrotation
                    JOINT RightToes
                    {
                         OFFSET 0.04000 -4.41509 8.49910
                         CHANNELS 3 Zrotation Xrotation Yrotation
                         End Site
                         {
                              OFFSET -0.08000 -0.13745 9.77979
                         }
                    }
               }
          }
     }
}
MOTION
Frames: 17
Frame Time: 0.01667
-111.59915 89.73989 37.12877 9.03260 -9.46390 45.52403 -3.84832 21.18336 -4.00365 -0.00600 0.01409 -0.00235 6.74396 4.12802 2.05893 -2.20394 10.59855 1.26436 -96.95840 -44.50782 -83.57664 -14.63338 38.96152 -88.61608 18.89558 7.55086 -9.24101 17.87977 11.00653 -1.81756 83.13631 -3.90674 71.19284 10.54213 32.00897 106.33205 18.68302 10.02818 5.08239 24.13110 -4.75100 -17.97512 -28.11160 3.97883 66.80236 13.04322 0.00119 -0.00362 -8.56867 -16.41025 -58.16903 -21.87322 0.88475 10.43199 43.67302 24.50716 -48.50393 2.97488 -0.00347 0.00524 -19.64002 -62.07188 29.70405 
-111.24467 89.68751 37.29473 9.18207 -9.35523 45.88099 -3.93606 21.05753 -3.82819 -0.00559 0.01283 -0.00282 6.04402 5.29443 3.06708 -2.46219 10.65250 1.06734 -95.57344 -43.58781 -82.81254 -14.23899 37.78869 -88.43986 18.73550 7.60268 -9.36819 17.94831 11.02956 -1.95822 83.06226 -4.26944 70.90692 10.54736 32.06498 106.78609 18.69751 10.14460 4.95097 23.62952 -4.67733 -16.65080 -27.46356 4.69483 64.94339 13.74306 -0.00017 -0.00277 -9.16053 -16.50071 -58.01262 -21.74632 0.52034 10.46528 43.47822 25.43622 -48.76746 4.46798 -0.00334 0.00394 -21.72726 -62.78128 28.49273 
-110.90466 89.65247 37.45856 9.33351 -9.23999 46.24548 -4.08129 21.02012 -3.65635 -0.00509 0.01179 -0.00318 5.40353 6.20575 3.99544 -2.65917 10.63087 0.88578 -94.51486 -42.79242 -82.19852 -13.92904 36.86789 -88.30177 18.66077 7.61053 -9.48376 18.05549 10.97632 -2.08687 82.94625 -4.52732 70.60899 10.49223 32.06841 107.27322 18.72148 10.24434 4.78670 23.18182 -4.69633 -15.38167 -26.95188 5.46613 63.32610 14.44209 -0.00121 -0.00181 -9.79683 -16.70758 -58.00024 -21.59751 0.23513 10.45666 43.19070 26.25493 -48.93849 5.86780 -0.00315 0.00284 -23.70974 -63.34350 27.36435 
-110.58112 89.63287 37.62197 9.48076 -9.12379 46.60998 -4.27077 21.05622 -3.48788 -0.00455 0.01092 -0.00349 4.82390 6.88502 4.83843 -2.78873 10.54703 0.71055 -93.72120 -42.11887 -81.69270 -13.69064 36.16171 -88.19334 18.56860 7.65070 -9.59794 18.19454 10.85837 -2.20430 82.79401 -4.68541 70.31809 10.38428 32.02913 107.76083 18.72312 10.33137 4.60307 22.78440 -4.78880 -14.18492 -26.56584 6.28612 61.94645 15.14076 -0.00197 -0.00083 -10.47250 -17.03160 -58.12579 -21.42321 0.02261 10.41480 42.83021 26.96426 -49.02989 7.16611 -0.00296 0.00196 -25.58063 -63.76893 26.30304 
-110.27296 89.62690 37.78681 9.61892 -9.01157 46.96523 -4.49238 21.15199 -3.32117 -0.00400 0.01020 -0.00375 4.30490 7.35695 5.59304 -2.85075 10.41380 0.53316 -93.13213 -41.56195 -81.26295 -13.51310 35.62319 -88.10336 18.52371 7.66097 -9.71267 18.35992 10.68720 -2.31437 82.61303 -4.75345 70.05049 10.23424 31.96193 108.21960 18.68688 10.41043 4.41808 22.43929 -4.93947 -13.07356 -26.29258 7.14605 60.79896 15.83673 -0.00246 0.00007 -11.18862 -17.44884 -58.37379 -21.22665 -0.12298 10.34893 42.41396 27.56828 -49.04872 8.36173 -0.00277 0.00128 -27.33624 -64.08134 25.30138 
-109.97737 89.63226 37.95476 9.74451 -8.90786 47.30224 -4.73463 21.29487 -3.15522 -0.00342 0.00957 -0.00402 3.84421 7.64743 6.25907 -2.84933 10.24321 0.34791 -92.69160 -41.11242 -80.88516 -13.38217 35.20682 -88.02538 18.45091 7.69546 -9.83349 18.54703 10.47384 -2.42347 82.41039 -4.74159 69.81733 10.05289 31.87890 108.63061 18.59884 10.48902 4.25158 22.15033 -5.13548 -12.05841 -26.11800 8.03483 59.87307 16.52600 -0.00272 0.00086 -11.94609 -17.92128 -58.70950 -21.01358 -0.20725 10.26698 41.95536 28.07410 -49.00040 9.45752 -0.00258 0.00075 -28.96600 -64.31137 24.36727 
-109.69060 89.64591 38.12672 9.85556 -8.81702 47.61303 -4.98607 21.47396 -2.99064 -0.00280 0.00900 -0.00435 3.43710 7.78296 6.83910 -2.78829 10.04681 0.15182 -92.36140 -40.76467 -80.54642 -13.28653 34.87888 -87.95768 18.38458 7.72025 -9.95514 18.74659 10.22914 -2.53773 82.19817 -4.65855 69.62522 9.84909 31.78602 108.98701 18.46619 10.57306 4.11649 21.92056 -5.36493 -11.15060 -26.03045 8.93937 59.15403 17.20451 -0.00276 0.00152 -12.73815 -18.41529 -59.08360 -20.78999 -0.23577 10.17530 41.46648 28.49034 -48.89153 10.45711 -0.00236 0.00035 -30.44426 -64.48660 23.52857 
-109.40826 89.66463 38.30301 9.95130 -8.74335 47.89074 -5.23506 21.68007 -2.82973 -0.00214 0.00848 -0.00474 3.07687 7.78957 7.33851 -2.67199 9.83509 -0.05643 -92.12498 -40.52177 -80.24463 -13.22352 34.62757 -87.89989 18.28562 7.75964 -10.07194 18.94209 9.96323 -2.66284 81.99592 -4.50920 69.47752 9.63052 31.68428 109.28951 18.30513 10.66180 4.01821 21.75151 -5.61657 -10.36257 -26.02325 9.84602 58.62814 17.86880 -0.00264 0.00205 -13.54883 -18.91157 -59.44693 -20.56127 -0.21400 10.07942 40.95994 28.82579 -48.73075 11.36348 -0.00213 0.00006 -31.73993 -64.62793 22.82115 
-109.12627 89.68570 38.48376 10.03175 -8.69079 48.12907 -5.47102 21.90500 -2.67537 -0.00149 0.00796 -0.00517 2.75625 7.69168 7.76508 -2.50935 9.61404 -0.27510 -91.97470 -40.39325 -79.98006 -13.20228 34.45743 -87.84817 18.19163 7.78091 -10.17867 19.11989 9.68228 -2.80470 81.81921 -4.29469 69.37228 9.40581 31.57244 109.54032 18.14333 10.74828 3.95598 21.64328 -5.88068 -9.70690 -26.09471 10.74326 58.28820 18.51528 -0.00241 0.00243 -14.35548 -19.39334 -59.76069 -20.33166 -0.14741 9.98543 40.44902 29.08850 -48.52862 12.17900 -0.00188 -0.00013 -32.84566 -64.75354 22.26085 
-108.84153 89.70731 38.66906 10.09727 -8.66219 48.32221 -5.68624 22.14046 -2.52997 -0.00094 0.00741 -0.00559 2.46892 7.51166 8.12826 -2.31573 9.38357 -0.49990 -91.89447 -40.38716 -79.74593 -13.23914 34.37651 -87.79243 18.09627 7.78771 -10.28185 19.27965 9.38706 -2.96718 81.66732 -4.01797 69.30054 9.18654 31.44934 109.73995 18.00400 10.82507 3.92592 21.59473 -6.15108 -9.19482 -26.24731 11.62451 58.13568 19.13897 -0.00212 0.00268 -15.13237 -19.82279 -59.99419 -20.10413 -0.04199 9.90029 39.94650 29.28572 -48.29757 12.90593 -0.00163 -0.00024 -33.78803 -64.88078 21.83359 
-108.55234 89.72847 38.85914 10.14827 -8.65851 48.46521 -5.87740 22.37772 -2.39536 -0.00056 0.00684 -0.00600 2.21024 7.26974 8.43851 -2.11089 9.14280 -0.72777 -91.85319 -40.50511 -79.52972 -13.35044 34.37978 -87.71715 18.02897 7.75715 -10.39447 19.42625 9.07808 -3.14950 81.53065 -3.68699 69.25131 8.98531 31.31546 109.88839 17.90073 10.89083 3.92302 21.60374 -6.42698 -8.83442 -26.48658 12.48981 58.17860 19.73285 -0.00181 0.00282 -15.85294 -20.14054 -60.12128 -19.88087 0.09549 9.83088 39.46350 29.42408 -48.05165 13.54663 -0.00138 -0.00029 -34.61375 -65.02529 21.50643 
-108.25808 89.74895 39.05487 10.18604 -8.67740 48.55466 -6.04754 22.60860 -2.27346 -0.00037 0.00634 -0.00639 1.97716 6.98337 8.70671 -1.91552 8.89726 -0.95951 -91.81032 -40.74041 -79.32094 -13.54373 34.44415 -87.60751 17.97785 7.70052 -10.52954 19.55299 8.76229 -3.34758 81.40899 -3.31170 69.21954 8.81059 31.17276 109.98914 17.83933 10.95217 3.93419 21.66689 -6.71353 -8.62714 -26.82019 13.34611 58.42686 20.28846 -0.00151 0.00285 -16.49281 -20.29479 -60.12651 -19.66415 0.25822 9.78276 39.00656 29.50795 -47.80506 14.10287 -0.00112 -0.00030 -35.37175 -65.19804 21.24043 
-107.95822 89.76885 39.25770 10.21068 -8.71562 48.58893 -6.20241 22.82665 -2.16662 -0.00040 0.00582 -0.00675 1.76761 6.66681 8.94300 -1.74849 8.65916 -1.19464 -91.72449 -41.07737 -79.11308 -13.81265 34.53499 -87.45947 17.94604 7.62626 -10.68985 19.63792 8.45338 -3.55494 81.31899 -2.90508 69.20969 8.66591 31.02420 110.04964 17.83431 11.01907 3.93492 21.77971 -7.01843 -8.56503 -27.25167 14.20337 58.88669 20.79715 -0.00123 0.00276 -17.03764 -20.27450 -60.01373 -19.45653 0.43981 9.75909 38.58201 29.54103 -47.57137 14.57595 -0.00088 -0.00029 -36.10257 -65.40426 20.99425 
-107.65099 89.78767 39.46898 10.22292 -8.76814 48.56832 -6.35087 23.02778 -2.07785 -0.00056 0.00558 -0.00709 1.57941 6.33042 9.15624 -1.61854 8.44080 -1.43378 -91.56998 -41.49829 -78.90566 -14.13743 34.61996 -87.27843 17.91717 7.56114 -10.87008 19.66118 8.16596 -3.77119 81.27935 -2.47910 69.22861 8.55067 30.87719 110.08491 17.89376 11.09309 3.90376 21.93401 -7.35347 -8.62888 -27.77834 15.08230 59.55727 21.24551 -0.00098 0.00253 -17.49618 -20.12967 -59.80315 -19.26314 0.63549 9.76032 38.19585 29.52719 -47.36079 14.96758 -0.00069 -0.00026 -36.82673 -65.63721 20.73132 
-107.33288 89.80363 39.68917 10.22385 -8.82995 48.49512 -6.50135 23.21026 -2.01026 -0.00077 0.00548 -0.00733 1.40990 5.98249 9.35253 -1.52639 8.25067 -1.66592 -91.33894 -41.98127 -78.69862 -14.49370 34.68121 -87.07889 17.89345 7.51558 -11.06046 19.61556 7.91186 -3.98877 81.30135 -2.05635 69.28193 8.46507 30.74523 110.10550 17.99946 11.16174 3.83950 22.11993 -7.72919 -8.79198 -28.39300 16.00119 60.43117 21.62297 -0.00075 0.00212 -17.90177 -19.96523 -59.52825 -19.09062 0.84251 9.78458 37.85338 29.47202 -47.17753 15.28146 -0.00058 -0.00023 -37.53888 -65.87762 20.43093 
-106.99883 89.81331 39.91758 10.21482 -8.89757 48.37367 -6.65806 23.37429 -1.96721 -0.00089 0.00548 -0.00741 1.25572 5.63025 9.53531 -1.46048 8.09123 -1.87537 -91.04436 -42.50688 -78.49186 -14.86184 34.71573 -86.87518 17.87050 7.49561 -11.25335 19.51652 7.69845 -4.19203 81.37714 -1.66665 69.36958 8.41131 30.64631 110.11474 18.11037 11.20766 3.75825 22.32786 -8.14925 -9.02676 -29.08507 16.96252 61.49601 21.92807 -0.00052 0.00159 -18.30441 -19.91452 -59.23868 -18.94618 1.05958 9.82813 37.55935 29.38456 -47.02013 15.52464 -0.00058 -0.00021 -38.21575 -66.10776 20.09612 
-106.64293 89.81158 40.15276 10.19718 -8.96975 48.21015 -6.81851 23.52132 -1.95223 -0.00080 0.00552 -0.00728 1.11341 5.28024 9.70630 -1.40137 7.96009 -2.04419 -90.70989 -43.05701 -78.28439 -15.23342 34.72794 -86.67399 17.85246 7.49070 -11.44230 19.39780 7.52885 -4.35847 81.48173 -1.34087 69.48462 8.39111 30.59573 110.11211 18.18548 11.22241 3.68111 22.54989 -8.60864 -9.31046 -29.84050 17.94957 62.73355 22.16831 -0.00028 0.00101 -18.75804 -20.09072 -58.99483 -18.83643 1.28580 9.88621 37.31844 29.27836 -46.88549 15.70762 -0.00066 -0.00018 -38.82502 -66.32539 19.75608 
